<?xml version="1.0" encoding="iso-8859-1"?>
<!-- Uploaded to: SVG Repo, www.svgrepo.com, Generator: SVG Repo Mixer Tools -->
<svg height="800px" width="800px" version="1.1" id="Layer_1" xmlns="http://www.w3.org/2000/svg" xmlns:xlink="http://www.w3.org/1999/xlink" 
	 viewBox="0 0 512.002 512.002" xml:space="preserve">
<path style="fill:#F7B239;" d="M170.411,354.361c47.27-47.282,123.914-47.282,171.184,0c-23.641,23.629-54.616,35.45-85.592,35.45
	S194.052,377.99,170.411,354.361z"/>
<path style="fill:#F95428;" d="M290.408,87.771c0-9.494,3.857-18.099,10.076-24.329c6.231-6.219,14.835-10.076,24.329-10.076
	c19.001,0,34.405,15.405,34.405,34.405V215.34c0,0,30.845-25.03,74.851-12.509c0,0-37.313,62.556-37.313,152.219v7.299
	c0,38.868-15.761,74.056-41.229,99.525c-25.469,25.469-60.657,41.229-99.525,41.229c-77.735,0-140.754-63.019-140.754-140.754
	v-7.299c0-89.663-37.313-152.219-37.313-152.219c44.006-12.521,74.839,12.509,74.839,12.509V87.771
	c0-9.494,3.845-18.099,10.076-24.329c6.231-6.219,14.835-10.076,24.341-10.076c19.001,0,34.405,15.405,34.405,34.405V43.313
	c0-19.013,15.405-34.417,34.405-34.417c9.494,0,18.099,3.845,24.329,10.076c6.219,6.231,10.076,14.835,10.076,24.341V87.771
	L290.408,87.771z M341.594,354.361c-47.27-47.282-123.914-47.282-171.184,0c23.641,23.629,54.616,35.45,85.592,35.45
	S317.953,377.99,341.594,354.361z"/>
<g>
	<path style="fill:#333333;" d="M442.342,199.542c-1.021-2.571-3.178-4.521-5.839-5.277c-29.741-8.456-53.955-1.396-68.383,5.449
		V87.773c0-23.88-19.428-43.307-43.307-43.307c-9.53,0-18.346,3.101-25.505,8.337v-9.497C299.306,19.428,279.878,0,255.999,0
		s-43.307,19.428-43.307,43.307v9.496c-7.16-5.236-15.974-8.337-25.504-8.337c-23.88,0-43.307,19.428-43.307,43.307v111.94
		c-14.428-6.843-38.649-13.901-68.383-5.447c-2.657,0.755-4.811,2.706-5.833,5.273c-1.022,2.567-0.793,5.466,0.618,7.841
		c0.362,0.608,36.066,61.735,36.066,147.67v7.299c0,82.519,67.134,149.654,149.654,149.654s149.654-67.135,149.654-149.654v-7.299
		c0-85.935,35.704-147.062,36.061-147.661C443.13,205.011,443.362,202.113,442.342,199.542z M387.851,355.048v7.299
		c0,72.703-59.149,131.852-131.852,131.852S124.147,435.05,124.147,362.347v-7.299c0-70.382-22.098-124.042-32.865-146.008
		c25.966-3.788,45.204,6.193,52.597,10.916v31.993c0,4.916,3.984,8.901,8.901,8.901s8.901-3.985,8.901-8.901V87.773
		c0-14.064,11.442-25.505,25.505-25.505c14.064,0,25.504,11.442,25.504,25.505v167.184c0,4.916,3.984,8.901,8.901,8.901
		c4.917,0,8.901-3.985,8.901-8.901V43.307c0-14.064,11.442-25.505,25.505-25.505c14.064,0,25.504,11.442,25.504,25.505v211.65
		c0,4.916,3.984,8.901,8.901,8.901s8.901-3.985,8.901-8.901V87.773c0-14.064,11.442-25.505,25.505-25.505
		s25.505,11.442,25.505,25.505v164.176c0,4.916,3.984,8.901,8.901,8.901c4.917,0,8.901-3.985,8.901-8.901v-31.976
		c7.396-4.687,26.728-14.665,52.593-10.924C409.944,231.017,387.851,284.672,387.851,355.048z"/>
	<path style="fill:#333333;" d="M255.999,310.001c-34.71,0-67.344,13.516-91.888,38.061c-3.476,3.476-3.476,9.111,0,12.587
		c24.544,24.544,57.178,38.061,91.888,38.061s67.342-13.516,91.888-38.061c1.669-1.669,2.606-3.933,2.606-6.294
		s-0.938-4.625-2.606-6.294C323.341,323.519,290.709,310.001,255.999,310.001z M255.999,380.909
		c-26.842,0-52.244-9.366-72.474-26.553c20.23-17.186,45.632-26.553,72.474-26.553c26.841,0,52.244,9.366,72.473,26.553
		C308.243,371.542,282.841,380.909,255.999,380.909z"/>
	<path style="fill:#333333;" d="M233.978,354.356c0,12.142,9.879,22.021,22.022,22.021c12.143,0,22.022-9.879,22.022-22.021
		s-9.879-22.021-22.022-22.021C243.857,332.335,233.978,342.213,233.978,354.356z"/>
</g>
</svg>